<svg width="20" height="20" viewBox="0 0 20 20" fill="none" xmlns="http://www.w3.org/2000/svg">
<path d="M3.125 0H13.125L18.125 5V18.75C18.125 19.4404 17.5654 20 16.875 20H3.125C2.43463 20 1.875 19.4404 1.875 18.75V1.25C1.875 0.559625 2.43463 0 3.125 0Z" fill="#7C8EEE"/>
<path d="M13.125 0L18.125 5H14.375C13.6846 5 13.125 4.44037 13.125 3.75V0Z" fill="#CAD1F8"/>
<path d="M12.3681 12.1248C12.274 12.125 12.1834 12.0893 12.1146 12.0251C11.9642 11.8851 11.9557 11.6497 12.0958 11.4992L13.1448 10.372C13.7418 9.73049 13.4478 8.28636 12.7926 7.67665L12.7705 7.65615C12.4446 7.3528 11.9034 7.14142 11.3583 7.10455C10.7993 7.06673 10.3249 7.21024 10.0569 7.49832L9.00782 8.62557C8.8678 8.77602 8.63235 8.78449 8.4819 8.64447C8.33145 8.50446 8.32298 8.26901 8.463 8.11856L9.51206 6.99131C9.93357 6.53836 10.6248 6.30897 11.4085 6.36201C12.1269 6.41061 12.8256 6.69074 13.2776 7.11136L13.2996 7.13186C13.7516 7.55245 14.0812 8.22925 14.1812 8.94229C14.2903 9.72014 14.1112 10.426 13.6897 10.879L12.6406 12.0062C12.5673 12.085 12.4678 12.1248 12.3681 12.1248Z" fill="white"/>
<path d="M12.3578 12.1313C12.2638 12.1314 12.1732 12.0958 12.1044 12.0316L8.47603 8.655C8.32558 8.51498 8.31712 8.27953 8.45712 8.12909C8.59714 7.97864 8.8326 7.97017 8.98305 8.11018L12.6114 11.4868C12.7619 11.6268 12.7703 11.8622 12.6303 12.0127C12.557 12.0914 12.4576 12.1313 12.3578 12.1313ZM13.0515 7.74818C12.9575 7.74829 12.8669 7.71264 12.7981 7.64846C12.6476 7.50846 12.6392 7.273 12.7792 7.12255L13.7135 6.11861C13.8535 5.96818 14.089 5.95969 14.2394 6.09971C14.3899 6.23972 14.3984 6.47518 14.2583 6.62563L13.324 7.62957C13.2507 7.70832 13.1513 7.74818 13.0515 7.74818ZM8.16981 15.6458C8.09729 15.6458 8.02385 15.6433 7.94951 15.6383C7.23112 15.5897 6.5324 15.3095 6.08042 14.8889L6.05839 14.8684C5.60643 14.4478 5.27687 13.771 5.17682 13.058C5.06767 12.2801 5.24684 11.5742 5.66836 11.1213L6.71741 9.99405C6.85743 9.84361 7.09289 9.83513 7.24334 9.97516C7.39378 10.1152 7.40224 10.3506 7.26224 10.5011L6.21319 11.6283C5.9451 11.9164 5.83599 12.3998 5.91384 12.9546C5.98977 13.4957 6.23944 14.0203 6.56542 14.3236L6.58744 14.3441C6.91342 14.6475 7.45459 14.8589 7.99974 14.8958C8.5587 14.9336 9.03305 14.7901 9.30114 14.502L10.3502 13.3747C10.4902 13.2243 10.7257 13.2158 10.8761 13.3558C11.0266 13.4958 11.035 13.7313 10.895 13.8817L9.84595 15.009C9.46444 15.419 8.86186 15.6458 8.16981 15.6458Z" fill="white"/>
<path d="M10.6284 13.9899C10.5344 13.9901 10.4438 13.9544 10.375 13.8902L6.74663 10.5137C6.59618 10.3736 6.58771 10.1382 6.72773 9.98775C6.86773 9.83731 7.10321 9.82884 7.25365 9.96884L10.882 13.3454C11.0325 13.4854 11.041 13.7209 10.9009 13.8713C10.8276 13.9501 10.7282 13.9899 10.6284 13.9899ZM5.37205 16.0004C5.27798 16.0006 5.18739 15.9649 5.11862 15.9007C4.96817 15.7607 4.9597 15.5253 5.09971 15.3748L6.03403 14.3709C6.17403 14.2204 6.40951 14.2119 6.55995 14.352C6.7104 14.492 6.71887 14.7275 6.57885 14.8779L5.64454 15.8818C5.57124 15.9606 5.47176 16.0004 5.37205 16.0004Z" fill="white"/>
<path d="M8.08396 11.4736C7.9899 11.4737 7.89931 11.4381 7.83053 11.3739C7.68008 11.2339 7.67161 10.9984 7.81163 10.848L8.68036 9.91451C8.82037 9.76406 9.05583 9.7556 9.20628 9.89561C9.35673 10.0356 9.3652 10.2711 9.22519 10.4215L8.35645 11.355C8.28316 11.4338 8.18368 11.4736 8.08396 11.4736ZM9.80126 13.0718C9.70719 13.0719 9.6166 13.0362 9.54783 12.972C9.39738 12.832 9.38892 12.5966 9.52894 12.4461L10.3977 11.5126C10.5377 11.3622 10.7732 11.3537 10.9236 11.4937C11.0741 11.6337 11.0825 11.8692 10.9425 12.0197L10.0737 12.9531C10.0005 13.0319 9.90099 13.0718 9.80126 13.0718Z" fill="white"/>
</svg>
