<svg width="20" height="20" viewBox="0 0 20 20" fill="none" xmlns="http://www.w3.org/2000/svg">
  <path d="M3.125 0H13.125L18.125 5V18.75C18.125 19.4404 17.5654 20 16.875 20H3.125C2.4346 20 1.875 19.4404 1.875 18.75V1.25C1.875.5596 2.4346 0 3.125 0Z" fill="#C58A14"/>
  <path d="M9 4H11V6H9V4ZM11 6H13V8H11V6ZM9 8H11V10H9V8ZM11 10H13V12H11V10ZM9 12H11V14H9V12ZM10 14H12.5V17H9.5V15H10V14Z" fill="white"/>
  <path d="M13.125 0 18.125 5H14.375C13.6846 5 13.125 4.4404 13.125 3.75V0Z" fill="#F8E2AD"/>
</svg>
