<svg width="20" height="20" viewBox="0 0 20 20" fill="none" xmlns="http://www.w3.org/2000/svg">
<path d="M3.125 0H13.125L18.125 5V18.75C18.125 19.4404 17.5654 20 16.875 20H3.125C2.43463 20 1.875 19.4404 1.875 18.75V1.25C1.875 0.559625 2.43463 0 3.125 0Z" fill="#FF6600"/>
<path d="M7.72762 9.05834C7.24101 9.68291 7 10.5031 7 11.5048C7 12.5253 7.22953 13.3361 7.70008 13.9418C8.23259 14.6394 9.05203 15 10.1469 15C10.8539 15 11.4621 14.7926 11.9694 14.3778C12.5111 13.9347 12.8531 13.3196 13 12.5276H11.9533C11.8248 13.0367 11.6044 13.4256 11.29 13.6802C10.9939 13.9064 10.6083 14.029 10.14 14.029C9.42387 14.029 8.88906 13.7933 8.54935 13.3408C8.23718 12.9165 8.0811 12.3014 8.0811 11.5095C8.0811 10.7341 8.23718 10.1307 8.55853 9.69705C8.90742 9.20446 9.42387 8.97114 10.1148 8.97114C10.5738 8.97114 10.9503 9.06541 11.2464 9.27281C11.5493 9.48022 11.7513 9.80075 11.8615 10.2462H12.9105C12.8095 9.56507 12.5249 9.01827 12.0451 8.62232C11.5493 8.20751 10.9044 8.00011 10.1331 8.00011C9.07728 7.99304 8.2785 8.33949 7.72762 9.05834Z" fill="white"/>
<path d="M13.125 0L18.125 5H14.375C13.6846 5 13.125 4.44037 13.125 3.75V0Z" fill="#FFE8D8"/>
</svg>
