<svg width="20" height="20" viewBox="0 0 20 20" fill="none" xmlns="http://www.w3.org/2000/svg">
<path d="M3.125 0H13.125L18.125 5V18.75C18.125 19.4404 17.5654 20 16.875 20H3.125C2.43463 20 1.875 19.4404 1.875 18.75V1.25C1.875 0.559625 2.43463 0 3.125 0Z" fill="url(#paint0_linear_67_2607)"/>
<path d="M9.5 7L9.63292 7.00069C12.0608 7.02285 14 7.65838 14 8.6875V14.3125C14 15.3603 11.9899 16 9.5 16C7.01012 16 5 15.3603 5 14.3125V8.6875C5 8.11912 5.58915 7.67154 6.52654 7.38042L6.54731 7.37419C6.59473 7.35965 6.64354 7.34546 6.69269 7.33162L6.73527 7.31985C6.80454 7.3009 6.87413 7.28312 6.944 7.26654C7.00285 7.25269 7.06308 7.23885 7.124 7.22604C7.70554 7.10142 8.37535 7.02631 9.095 7.00588C9.18673 7.00312 9.27915 7.00138 9.37192 7.00069H9.37365L9.5 7ZM9.5 13.1875C7.93262 13.1875 6.55492 12.9341 5.74977 12.4848V14.3125C5.74977 14.4427 6.071 14.6843 6.69685 14.8833C7.42585 15.1152 8.42762 15.2502 9.5 15.2502C10.5724 15.2502 11.5742 15.1152 12.3032 14.8833C12.929 14.6843 13.2499 14.4427 13.2499 14.3125L13.2502 12.4848C12.4451 12.9341 11.0674 13.1875 9.5 13.1875ZM13.2502 9.67231C12.4451 10.1216 11.0674 10.375 9.5 10.375C7.93262 10.375 6.55492 10.1216 5.74977 9.67231V11.5C5.74977 11.6302 6.071 11.8718 6.69685 12.0708C7.42585 12.3027 8.42762 12.4377 9.5 12.4377C10.5724 12.4377 11.5742 12.3027 12.3032 12.0708C12.8975 11.8815 13.217 11.654 13.2475 11.5204L13.2499 11.5L13.2502 9.67231ZM9.5 7.75012L9.356 7.75081C9.314 7.75129 9.272 7.75198 9.23 7.75288L9.356 7.75081C9.29369 7.7515 9.23173 7.75254 9.17012 7.75427L9.23 7.75288C9.17669 7.75392 9.12408 7.75531 9.07146 7.75738L9.17012 7.75427C9.10054 7.756 9.03096 7.75842 8.96208 7.76119L9.07146 7.75738C9.01435 7.75912 8.95758 7.76154 8.9015 7.76431L8.96208 7.76154C8.90808 7.76362 8.85408 7.76638 8.80077 7.7695L8.90115 7.76431C8.81981 7.76777 8.73846 7.77262 8.65815 7.77815L8.80077 7.7695C8.75058 7.77227 8.70073 7.77538 8.65123 7.77885L8.65815 7.77815C8.60865 7.78162 8.5595 7.78508 8.51069 7.78923L8.65123 7.77885C8.57888 7.78369 8.50723 7.78923 8.43627 7.79546L8.51069 7.78923C8.46431 7.79269 8.41827 7.79685 8.37223 7.80135L8.43627 7.79546C8.37119 7.801 8.30681 7.80723 8.24277 7.81415L8.37258 7.80135C8.31477 7.80654 8.25731 7.81242 8.20054 7.81865L8.24277 7.81415C8.18842 7.81969 8.13477 7.82592 8.08146 7.83215L8.20054 7.81831L8.02262 7.83942L8.08146 7.8325C8.033 7.83804 7.98454 7.84427 7.93677 7.85085L8.02262 7.83942C7.95685 7.84773 7.89246 7.85673 7.82877 7.86608L7.93677 7.85085C7.88381 7.85777 7.83154 7.86538 7.77962 7.87335L7.82842 7.86608C7.78135 7.873 7.73496 7.87992 7.68858 7.88754L7.77962 7.87335C7.71523 7.88304 7.65154 7.89342 7.58854 7.9045L7.68892 7.88754L7.54077 7.91281L7.58854 7.9045C7.53734 7.91326 7.48622 7.92249 7.43519 7.93219L7.54077 7.91281C7.48885 7.92215 7.43692 7.93219 7.38604 7.94223L7.43519 7.93254C7.38362 7.94258 7.33273 7.95296 7.28254 7.96369L7.38604 7.94223C7.33342 7.95262 7.2815 7.96369 7.23027 7.97477L7.28254 7.96369C7.23754 7.97304 7.19323 7.98308 7.14962 7.99312L7.23027 7.97477C7.18008 7.98585 7.13092 7.99727 7.08212 8.00938L7.14962 7.99312C7.1015 8.00454 7.05442 8.01596 7.00769 8.02773L7.08212 8.00938C7.03365 8.02115 6.98623 8.03327 6.9395 8.04573L7.00804 8.02773C6.96546 8.03881 6.92392 8.04988 6.88308 8.06131L6.9395 8.04573C6.89242 8.05854 6.84604 8.07135 6.80104 8.08485L6.72419 8.10838L6.68785 8.11981C6.62625 8.13951 6.56509 8.16051 6.50438 8.18281L6.55181 8.1655L6.48258 8.19077L6.50438 8.18281L6.43585 8.20877L6.48258 8.19077L6.40538 8.22088L6.43585 8.20877L6.36488 8.23715L6.40538 8.22088C6.37908 8.23127 6.35381 8.24165 6.32923 8.25204L6.36488 8.23715C6.34496 8.2455 6.32511 8.25404 6.30535 8.26277L6.32958 8.25238C6.30535 8.26242 6.2825 8.27246 6.26035 8.28285L6.30535 8.26277L6.23819 8.29288L6.26035 8.2825C6.24121 8.29129 6.22217 8.30029 6.20323 8.3095L6.23819 8.29288C5.98515 8.41127 5.82973 8.52896 5.77365 8.61896C5.75959 8.63918 5.75144 8.66291 5.75012 8.6875C5.75012 8.81765 6.071 9.05927 6.69685 9.25831C7.42585 9.49023 8.42762 9.62523 9.5 9.62523C10.5724 9.62523 11.5742 9.49023 12.3032 9.25831C12.929 9.05927 13.2499 8.81765 13.2499 8.6875C13.2499 8.55735 12.929 8.31573 12.3032 8.11669C11.5742 7.88477 10.5724 7.74977 9.5 7.74977V7.75012Z" fill="white"/>
<path d="M13.125 0L18.125 5H14.375C13.6846 5 13.125 4.44037 13.125 3.75V0Z" fill="#CAE2FF"/>
<defs>
<linearGradient id="paint0_linear_67_2607" x1="10" y1="0" x2="10" y2="20" gradientUnits="userSpaceOnUse">
<stop stop-color="#00B5FE"/>
<stop offset="1" stop-color="#006EFF"/>
</linearGradient>
</defs>
</svg>
