<svg width="20" height="20" viewBox="0 0 20 20" fill="none" xmlns="http://www.w3.org/2000/svg">
<path d="M3.125 0H13.125L18.125 5V18.75C18.125 19.4404 17.5654 20 16.875 20H3.125C2.43463 20 1.875 19.4404 1.875 18.75V1.25C1.875 0.559625 2.43463 0 3.125 0Z" fill="#4CB050"/>
<path d="M7.8175 15L10.0569 11.7858L12.3079 15H13.375L10.5746 11.103L13.1734 7.5H12.1063L10.0569 10.4201L8.0175 7.5H6.95075L9.52863 11.103L6.75 15H7.8175Z" fill="white"/>
<path d="M13.125 0L18.125 5H14.375C13.6846 5 13.125 4.44037 13.125 3.75V0Z" fill="#B7DFB9"/>
</svg>
