<svg width="20" height="20" viewBox="0 0 20 20" fill="none" xmlns="http://www.w3.org/2000/svg">
  <path d="M3.125 0H13.125L18.125 5V18.75C18.125 19.4404 17.5654 20 16.875 20H3.125C2.4346 20 1.875 19.4404 1.875 18.75V1.25C1.875.5596 2.4346 0 3.125 0Z" fill="#E5484D"/>
  <path d="M6.5 15V8H9.15C10.85 8 11.8 8.8 11.8 10.2C11.8 11.62 10.84 12.46 9.15 12.46H7.55V15H6.5ZM7.55 11.55H9.05C10.18 11.55 10.73 11.11 10.73 10.21C10.73 9.33 10.18 8.91 9.05 8.91H7.55V11.55Z" fill="white"/>
  <path d="M13.125 0 18.125 5H14.375C13.6846 5 13.125 4.4404 13.125 3.75V0Z" fill="#FFD1D3"/>
</svg>
