<svg width="20" height="20" viewBox="0 0 20 20" fill="none" xmlns="http://www.w3.org/2000/svg">
  <path d="M3.125 0H13.125L18.125 5V18.75C18.125 19.4404 17.5654 20 16.875 20H3.125C2.4346 20 1.875 19.4404 1.875 18.75V1.25C1.875.5596 2.4346 0 3.125 0Z" fill="#D85A30"/>
  <path d="M6.6 15V7.5H9.45C11.24 7.5 12.25 8.36 12.25 9.88C12.25 11.4 11.22 12.3 9.45 12.3H7.7V15H6.6ZM7.7 11.34H9.34C10.54 11.34 11.12 10.86 11.12 9.89C11.12 8.94 10.54 8.46 9.34 8.46H7.7V11.34Z" fill="white"/>
  <path d="M13.125 0 18.125 5H14.375C13.6846 5 13.125 4.4404 13.125 3.75V0Z" fill="#FFD6C7"/>
</svg>
