<svg width="20" height="20" viewBox="0 0 20 20" fill="none" xmlns="http://www.w3.org/2000/svg">
  <path d="M3.125 0H13.125L18.125 5V18.75C18.125 19.4404 17.5654 20 16.875 20H3.125C2.4346 20 1.875 19.4404 1.875 18.75V1.25C1.875.5596 2.4346 0 3.125 0Z" fill="#2F6FED"/>
  <path d="M6.25 7.5H7.35L8.55 13.16 9.9 8.4H10.85L12.2 13.16 13.4 7.5H14.5L12.8 15H11.72L10.38 10.45 9.05 15H7.96L6.25 7.5Z" fill="white"/>
  <path d="M13.125 0 18.125 5H14.375C13.6846 5 13.125 4.4404 13.125 3.75V0Z" fill="#C9DBFF"/>
</svg>
