<svg width="180" height="180" viewBox="0 0 180 180" fill="none" xmlns="http://www.w3.org/2000/svg">
<rect x="75.7871" y="82.8933" width="90.7467" height="57.9467" rx="2" fill="#1A1A1A"/>
<path d="M36.4258 55.56V50.3467C36.4258 45.3761 40.4552 41.3467 45.4258 41.3467H125.826C130.796 41.3467 134.826 45.3761 134.826 50.3467V126.373C134.826 131.344 130.796 135.373 125.826 135.373H45.4258C40.4552 135.373 36.4258 131.344 36.4258 126.373V122.8" stroke="#1A1A1A" stroke-width="0.5" stroke-dasharray="1 1"/>
<rect x="8.25" y="64.5566" width="49.7933" height="13.7133" rx="1.75" fill="white" stroke="#1A1A1A" stroke-width="0.5"/>
<rect x="8.25" y="83.1433" width="49.7933" height="14.8067" rx="1.75" fill="white" stroke="#1A1A1A" stroke-width="0.5"/>
<rect x="8.25" y="102.823" width="49.7933" height="13.7133" rx="1.75" fill="white" stroke="#1A1A1A" stroke-width="0.5"/>
<path d="M9.09375 114.507C9.09375 113.954 9.54147 113.507 10.0938 113.507H56.2004C56.7527 113.507 57.2004 113.954 57.2004 114.507V114.693C57.2004 115.246 56.7527 115.693 56.2004 115.693H10.0937C9.54146 115.693 9.09375 115.246 9.09375 114.693V114.507Z" fill="#E5E5E5"/>
<path d="M9.09375 95.92C9.09375 95.3678 9.54147 94.92 10.0938 94.92H56.2004C56.7527 94.92 57.2004 95.3678 57.2004 95.92V96.1067C57.2004 96.659 56.7527 97.1067 56.2004 97.1067H10.0937C9.54146 97.1067 9.09375 96.659 9.09375 96.1067V95.92Z" fill="#E5E5E5"/>
<path d="M9.09375 76.24C9.09375 75.6877 9.54147 75.24 10.0938 75.24H56.2004C56.7527 75.24 57.2004 75.6877 57.2004 76.24V76.4267C57.2004 76.9789 56.7527 77.4267 56.2004 77.4267H10.0937C9.54146 77.4267 9.09375 76.9789 9.09375 76.4267V76.24Z" fill="#E5E5E5"/>
<path d="M9.09375 66.4C9.09375 65.8477 9.54147 65.4 10.0937 65.4H11.3737C11.926 65.4 12.3737 65.8477 12.3737 66.4V76.4267C12.3737 76.979 11.926 77.4267 11.3737 77.4267H10.0938C9.54147 77.4267 9.09375 76.979 9.09375 76.4267V66.4Z" fill="#E5E5E5"/>
<path d="M9.09375 86.08C9.09375 85.5277 9.54147 85.08 10.0937 85.08H11.3737C11.926 85.08 12.3737 85.5277 12.3737 86.08V96.1066C12.3737 96.6589 11.926 97.1066 11.3737 97.1066H10.0938C9.54147 97.1066 9.09375 96.6589 9.09375 96.1066V86.08Z" fill="#E5E5E5"/>
<path d="M9.09375 104.667C9.09375 104.114 9.54147 103.667 10.0937 103.667H11.3737C11.926 103.667 12.3737 104.114 12.3737 104.667V114.693C12.3737 115.246 11.926 115.693 11.3737 115.693H10.0938C9.54147 115.693 9.09375 115.246 9.09375 114.693V104.667Z" fill="#E5E5E5"/>
<rect x="44.0801" y="67.5867" width="8.74667" height="4.37333" rx="1" fill="#1A1A1A"/>
<rect x="44.0801" y="86.1733" width="8.74667" height="4.37333" rx="1" fill="#1A1A1A"/>
<rect x="44.0801" y="105.853" width="8.74667" height="4.37333" rx="1" fill="#1A1A1A"/>
<rect x="39.707" y="67.5867" width="2.18667" height="4.37333" rx="1" fill="#FF112D"/>
<rect x="80.4102" y="88.61" width="91.34" height="56.3533" rx="1.75" fill="white" stroke="#1A1A1A" stroke-width="0.5"/>
<circle cx="126.08" cy="121.16" r="15.3067" fill="#FF112D" fill-opacity="0.06"/>
<path d="M126.457 115.708L127.589 114.679C130.569 114.99 133.462 116.227 135.743 118.391C135.798 118.442 135.843 118.502 135.873 118.57C135.903 118.637 135.92 118.709 135.92 118.783C135.921 118.856 135.906 118.928 135.877 118.996C135.848 119.064 135.805 119.126 135.75 119.177C135.695 119.229 135.63 119.27 135.559 119.298C135.487 119.326 135.411 119.34 135.334 119.339C135.256 119.338 135.18 119.323 135.109 119.294C135.038 119.265 134.974 119.223 134.92 119.171C132.579 116.95 129.531 115.795 126.457 115.708ZM124.938 115.752C122.126 115.994 119.385 117.133 117.238 119.171C117.184 119.223 117.12 119.264 117.049 119.293C116.978 119.321 116.902 119.336 116.825 119.337C116.748 119.337 116.672 119.323 116.601 119.295C116.53 119.267 116.465 119.227 116.411 119.175C116.356 119.123 116.313 119.062 116.284 118.995C116.255 118.927 116.24 118.855 116.24 118.782C116.241 118.709 116.256 118.637 116.286 118.57C116.316 118.502 116.36 118.442 116.415 118.391C119.111 115.833 122.662 114.57 126.204 114.601L124.938 115.751V115.752ZM124.778 117.778L125.502 118.821C123.334 118.949 121.204 119.797 119.551 121.365C119.497 121.417 119.433 121.459 119.362 121.488C119.291 121.517 119.215 121.532 119.137 121.533C119.06 121.534 118.984 121.52 118.912 121.492C118.841 121.464 118.776 121.423 118.721 121.371C118.667 121.32 118.623 121.258 118.594 121.19C118.565 121.123 118.55 121.05 118.551 120.977C118.551 120.903 118.568 120.831 118.598 120.764C118.628 120.696 118.673 120.636 118.728 120.585C120.424 118.976 122.564 118.041 124.778 117.778ZM125.943 117.702C128.651 117.669 131.369 118.63 133.43 120.585C133.484 120.636 133.527 120.697 133.556 120.764C133.585 120.83 133.6 120.902 133.6 120.975C133.6 121.047 133.585 121.119 133.556 121.186C133.527 121.253 133.484 121.313 133.43 121.365C133.376 121.416 133.312 121.457 133.241 121.484C133.17 121.512 133.095 121.526 133.018 121.526C132.942 121.526 132.866 121.512 132.796 121.484C132.725 121.457 132.661 121.416 132.607 121.365C130.971 119.813 128.868 118.966 126.723 118.825L125.943 117.702H125.943ZM125.418 120.831L124.245 122.178C123.347 122.451 122.53 122.925 121.864 123.559C121.81 123.611 121.746 123.653 121.675 123.682C121.604 123.711 121.528 123.726 121.45 123.727C121.373 123.728 121.297 123.714 121.225 123.686C121.154 123.658 121.089 123.617 121.034 123.565C120.98 123.514 120.936 123.452 120.907 123.384C120.878 123.316 120.863 123.244 120.864 123.171C120.865 123.097 120.881 123.025 120.911 122.958C120.942 122.89 120.986 122.829 121.041 122.779C122.262 121.62 123.82 120.971 125.418 120.831ZM126.739 120.831C128.337 120.971 129.895 121.62 131.116 122.779C131.172 122.829 131.216 122.89 131.247 122.958C131.277 123.025 131.293 123.097 131.294 123.171C131.295 123.244 131.28 123.316 131.251 123.384C131.221 123.452 131.178 123.514 131.124 123.565C131.069 123.617 131.004 123.658 130.933 123.686C130.861 123.714 130.785 123.728 130.707 123.727C130.63 123.726 130.554 123.711 130.483 123.682C130.412 123.653 130.348 123.611 130.294 123.559C129.06 122.389 127.416 121.84 125.797 121.912L126.739 120.831ZM127.241 127.255C127.882 126.647 127.882 125.659 127.241 125.051C127.088 124.906 126.907 124.791 126.708 124.713C126.509 124.635 126.295 124.595 126.079 124.595C125.863 124.595 125.649 124.635 125.45 124.713C125.251 124.791 125.07 124.906 124.917 125.051C124.276 125.659 124.276 126.647 124.917 127.255C125.558 127.862 126.6 127.863 127.241 127.255ZM128.063 124.271C129.158 125.309 129.158 126.997 128.063 128.035C127.803 128.282 127.494 128.478 127.153 128.612C126.812 128.745 126.448 128.814 126.079 128.813C125.36 128.813 124.642 128.554 124.094 128.035C123 126.997 123 125.309 124.094 124.271C125.189 123.233 126.969 123.233 128.063 124.271Z" fill="#FF112D"/>
<line x1="80.1602" y1="94.67" x2="172" y2="94.67" stroke="#1A1A1A" stroke-width="0.5"/>
<path d="M84.5273 90.2765C85.2329 90.2765 85.8046 90.8483 85.8047 91.5538C85.8047 92.2594 85.2329 92.8312 84.5273 92.8312C83.8218 92.8311 83.25 92.2594 83.25 91.5538C83.2501 90.8484 83.8219 90.2766 84.5273 90.2765ZM88.9971 90.2765C89.7026 90.2765 90.2743 90.8483 90.2744 91.5538C90.2744 92.2594 89.7026 92.8311 88.9971 92.8312C88.2915 92.8312 87.7197 92.2594 87.7197 91.5538C87.7198 90.8483 88.2915 90.2765 88.9971 90.2765ZM93.4707 90.2765C94.1762 90.2765 94.748 90.8483 94.748 91.5538C94.748 92.2594 94.1763 92.8312 93.4707 92.8312C92.7651 92.8312 92.1934 92.2594 92.1934 91.5538C92.1935 90.8483 92.7652 90.2765 93.4707 90.2765Z" fill="#1A1A1A"/>
<rect x="81.2539" y="94.92" width="89.6533" height="4.37333" fill="#E5E5E5"/>
<circle cx="36.4269" cy="123.347" r="2.18667" fill="#D9D9D9"/>
<circle cx="36.4269" cy="55.56" r="2.18667" fill="#D9D9D9"/>
<circle cx="86.7193" cy="41.3466" r="8.49667" fill="white" stroke="#1A1A1A" stroke-width="0.5" stroke-dasharray="1 1"/>
<circle cx="86.7206" cy="41.3467" r="5.46667" fill="#FF112D"/>
<path d="M88.4201 39.9766C88.5268 40.0833 88.5267 40.2566 88.4201 40.3633L87.1633 41.6201L88.4201 42.8769C88.5265 42.9836 88.5265 43.1555 88.4201 43.2622L88.2268 43.4555C88.1201 43.5622 87.9475 43.5627 87.8408 43.4562L86.584 42.1995L85.3279 43.4555C85.2212 43.5623 85.0479 43.5623 84.9412 43.4555L84.7479 43.2622C84.6414 43.1554 84.6419 42.9828 84.7485 42.8762L86.0046 41.6201L84.7479 40.3633C84.6413 40.2566 84.6412 40.0833 84.7479 39.9766L84.9412 39.7833C85.0479 39.6769 85.2205 39.6775 85.3272 39.784L86.584 41.0407L87.8408 39.784C87.9474 39.6775 88.12 39.6769 88.2268 39.7833L88.4201 39.9766Z" fill="white"/>
</svg>
