<svg width="180" height="179" viewBox="0 0 180 179" fill="none" xmlns="http://www.w3.org/2000/svg">
<rect x="22.7363" y="53.1777" width="85" height="105" rx="2" transform="rotate(-7.22366 22.7363 53.1777)" fill="#1A1A1A"/>
<path d="M34 46.667H91.748C92.1719 46.667 92.5824 46.8205 92.9014 47.0996L104.335 57.1055L104.339 57.1084L116.126 67.0088C116.522 67.3412 116.75 67.8318 116.75 68.3486V149.417C116.75 150.383 115.966 151.167 115 151.167H34C33.0335 151.167 32.25 150.383 32.25 149.417V48.417C32.25 47.4505 33.0335 46.667 34 46.667Z" fill="white" stroke="#1A1A1A" stroke-width="0.5"/>
<rect x="49" y="75" width="26" height="10" rx="1" fill="#FF3C4C" fill-opacity="0.25"/>
<rect x="49" y="68" width="26" height="3" rx="1" fill="#FF112D"/>
<rect x="49" y="99.417" width="51" height="4" rx="1" fill="#D4D4D4"/>
<rect x="49" y="109.417" width="51" height="4" rx="1" fill="#D4D4D4"/>
<rect x="49" y="119.417" width="51" height="4" rx="1" fill="#D4D4D4"/>
<path d="M32.1903 87.6419C15.2393 97.4548 5.46941 109.232 7.91555 119.264C11.9059 135.629 46.8937 141.153 86.0629 131.603C125.232 122.052 153.75 101.043 149.76 84.6777C147.442 75.1725 134.668 69.3245 116.69 67.9632" stroke="#1A1A1A" stroke-width="0.5" stroke-dasharray="1 1"/>
<path d="M172.306 21.0388C172.36 21.0292 172.414 21.026 172.466 21.0378C172.549 21.0564 172.588 21.1165 172.576 21.1778C172.582 21.1906 172.588 21.2041 172.59 21.2192C172.593 21.2433 172.586 21.2641 172.576 21.2836C172.575 21.2864 172.576 21.2899 172.574 21.2927L172.484 21.4964C172.258 22.0091 172.032 22.5222 171.806 23.0349C171.407 23.9394 171.008 24.8441 170.609 25.7486C170.101 26.8992 169.593 28.0496 169.085 29.2002C168.527 30.4655 167.969 31.7312 167.411 32.9964C166.865 34.2329 166.32 35.4702 165.774 36.7067C165.303 37.7743 164.832 38.8425 164.361 39.9102C164.026 40.6687 163.692 41.4273 163.357 42.1858C163.221 42.4938 163.106 42.8113 162.947 43.1157C162.788 43.4203 162.283 43.5138 161.985 43.3197C161.946 43.295 161.91 43.2686 161.872 43.2433L161.06 42.6957C160.014 41.9899 158.966 41.2832 157.92 40.577L154.289 38.1279C153.544 37.6246 152.797 37.1221 152.051 36.6188C152.011 36.5916 151.967 36.5653 151.929 36.5359C151.9 36.5133 151.876 36.4891 151.857 36.4641C151.314 36.6451 150.771 36.8271 150.228 37.0081C149.606 37.2156 148.984 37.4232 148.362 37.6304C148.097 37.7186 147.78 37.6977 147.75 37.4611C147.735 37.344 147.751 37.2178 147.751 37.0992L147.759 34.5002C147.661 34.4666 147.566 34.4232 147.47 34.3788C147.053 34.1843 146.635 33.989 146.218 33.7945L142.038 31.8483C140.765 31.2552 139.491 30.6628 138.218 30.0697C137.957 29.9482 137.689 29.8322 137.434 29.7046C137.122 29.5486 137.112 29.2117 137.49 29.0379C137.567 29.0022 137.649 28.9832 137.734 28.9637C138.265 28.8403 138.797 28.7205 139.328 28.5988L142.708 27.8238C144.254 27.4694 145.801 27.115 147.347 26.7605L152.718 25.5297L158.295 24.2512C160.054 23.8483 161.812 23.4451 163.57 23.0422C165.039 22.7055 166.509 22.368 167.978 22.0313C168.992 21.7988 170.006 21.5666 171.02 21.3343L172.146 21.0763L172.306 21.0388ZM170.391 22.788L167.364 25.0175C166.118 25.9349 164.873 26.8529 163.626 27.7707C162.316 28.7363 161.004 29.7022 159.692 30.6678L156.122 33.2984C155.235 33.952 154.347 34.6053 153.46 35.259C153.186 35.4603 152.913 35.6617 152.639 35.863C152.512 35.9567 152.366 36.0481 152.251 36.1493C152.097 36.2835 152.301 36.3788 152.418 36.4575C152.709 36.6542 153.001 36.8509 153.293 37.0477C154.349 37.7599 155.405 38.4731 156.462 39.1856C157.646 39.9845 158.83 40.7836 160.015 41.5825C160.739 42.0715 161.464 42.56 162.189 43.0491C162.321 43.1386 162.501 43.2029 162.593 43.0063C162.647 42.8899 162.696 42.7713 162.747 42.6545C163.006 42.0696 163.264 41.4844 163.522 40.8995C163.937 39.9583 164.352 39.0169 164.768 38.0757L166.302 34.5996C166.854 33.3482 167.406 32.0961 167.958 30.8447C168.489 29.6429 169.019 28.4404 169.549 27.2383C170.002 26.2104 170.457 25.1832 170.91 24.1556C171.225 23.4408 171.54 22.7253 171.855 22.0105L172.051 21.5652C171.498 21.9728 170.945 22.3805 170.391 22.788ZM170.094 22.6037C168.884 23.2653 167.674 23.9267 166.464 24.5883L161.945 27.0611C160.366 27.9246 158.786 28.788 157.207 29.6515C155.78 30.432 154.353 31.2131 152.926 31.9936C151.875 32.5683 150.823 33.1432 149.772 33.7179C149.323 33.964 148.879 34.2206 148.42 34.4574C148.326 34.506 148.238 34.5333 148.154 34.5459C148.153 34.8799 148.153 35.2141 148.152 35.5482C148.15 36.0571 148.148 36.5665 148.147 37.0757L148.146 37.2992C148.146 37.3258 148.13 37.3782 148.145 37.4021C148.161 37.3978 148.189 37.3878 148.197 37.385C148.284 37.3558 148.371 37.3273 148.458 37.2984L151.815 36.179L151.817 36.1777C151.849 36.0964 151.914 36.0164 152.006 35.947C152.127 35.8553 152.253 35.7652 152.376 35.6744L154.387 34.1938C155.46 33.404 156.532 32.6132 157.604 31.8234C158.897 30.8708 160.191 29.9188 161.484 28.9662C162.8 27.9967 164.117 27.0274 165.433 26.0578C166.593 25.2039 167.752 24.3499 168.911 23.496C169.342 23.1788 169.773 22.8607 170.203 22.5434C170.167 22.5633 170.131 22.5838 170.094 22.6037ZM169.848 21.8887C168.617 22.1707 167.386 22.4538 166.155 22.7358C164.547 23.1044 162.94 23.4719 161.333 23.8404C159.537 24.2519 157.741 24.6642 155.945 25.0757C154.107 25.4972 152.269 25.9181 150.43 26.3396L145.354 27.5031C143.972 27.82 142.591 28.1369 141.209 28.4535C140.305 28.6609 139.402 28.8678 138.498 29.0749L137.85 29.2234C137.68 29.2624 137.47 29.3515 137.686 29.4661C137.936 29.5993 138.214 29.7122 138.476 29.8342C139.026 30.0907 139.577 30.3467 140.127 30.6029C141.574 31.2763 143.019 31.95 144.466 32.6234C145.537 33.1224 146.609 33.622 147.68 34.121C147.817 34.1845 148.01 34.3257 148.193 34.2424C148.347 34.1724 148.491 34.0804 148.636 34.0011C149.423 33.5711 150.209 33.1408 150.995 32.7108C152.26 32.0191 153.525 31.3265 154.79 30.6345L159.341 28.1461C160.895 27.296 162.45 26.446 164.005 25.5956C165.38 24.8433 166.756 24.091 168.132 23.3387C169.111 22.8034 170.09 22.2673 171.069 21.7318C171.198 21.6616 171.326 21.5913 171.455 21.521L169.848 21.8887Z" fill="#1A1A1A"/>
<path d="M147.342 40.2415C132.219 45.3877 124.9 43.1792 124.282 39.7101C123.509 35.3737 127.906 33.9966 130.879 37.6469C133.853 41.2972 131.225 46.6599 129.982 49.4171C128.802 52.0336 123.073 56.517 120.964 57.3157" stroke="#1A1A1A" stroke-width="0.5" stroke-dasharray="1 1"/>
<circle cx="8" cy="118.417" r="2.75" fill="#D9D9D9" stroke="#1A1A1A" stroke-width="0.5"/>
<circle cx="135" cy="108.417" r="4.75" fill="#FF112D" stroke="#1A1A1A" stroke-width="0.5"/>
<path d="M94.5 65.417L92 46.917L116.5 67.917V73L94.5 65.417Z" fill="#1A1A1A"/>
<path d="M94.5 65.417L92 46.917L116.5 67.917L94.5 65.417Z" fill="#D4D4D4"/>
</svg>
