<svg width="180" height="179" viewBox="0 0 180 179" fill="none" xmlns="http://www.w3.org/2000/svg">
<rect x="41.2363" y="42.7609" width="85" height="105" rx="2" transform="rotate(-7.22366 41.2363 42.7609)" fill="#1A1A1A"/>
<path d="M52.5 36.2501H110.248C110.672 36.2501 111.082 36.4036 111.401 36.6827L122.835 46.6886L122.839 46.6915L134.626 56.5919C135.022 56.9244 135.25 57.415 135.25 57.9318V139C135.25 139.967 134.466 140.75 133.5 140.75H52.5C51.5335 140.75 50.75 139.967 50.75 139V38.0001C50.75 37.0336 51.5335 36.2501 52.5 36.2501Z" fill="white" stroke="#1A1A1A" stroke-width="0.5"/>
<rect x="67.5" y="64.5831" width="26" height="10" rx="1" fill="#FF3C4C" fill-opacity="0.25"/>
<rect x="67.5" y="57.5831" width="26" height="3" rx="1" fill="#FF112D"/>
<rect x="67.5" y="89" width="51" height="4" rx="1" fill="#D4D4D4"/>
<rect x="67.5" y="99.0001" width="51" height="4" rx="1" fill="#D4D4D4"/>
<rect x="67.5" y="109" width="51" height="4" rx="1" fill="#D4D4D4"/>
<path d="M113 55.0001L110.5 36.5001L135 57.5001V62.5831L113 55.0001Z" fill="#1A1A1A"/>
<path d="M113 55.0001L110.5 36.5001L135 57.5001L113 55.0001Z" fill="#D4D4D4"/>
<g clip-path="url(#clip0_1101_5767)">
<path d="M98.6914 82.4272L98.6217 82.4665C98.4431 82.4754 98.2251 82.4147 98.1465 82.2753L90.6791 69.036C90.6005 68.8967 90.5916 68.718 90.731 68.6394C90.831 68.4911 90.9704 68.4125 91.1187 68.5126L105.197 70.6751C105.376 70.6662 105.494 70.8752 105.572 71.0146C105.542 71.1236 105.442 71.2719 105.303 71.3505L99.2403 74.7698L98.8915 82.1306C98.8612 82.2396 98.8308 82.3486 98.6914 82.4272ZM98.1359 80.628L98.4381 74.4874C98.4685 74.3784 98.5686 74.2302 98.6383 74.1909L103.934 71.2039L98.6914 74.4874L98.1359 80.628Z" fill="#FF112D"/>
<path d="M99.8418 68.3417C99.8418 66.6605 99.3433 65.0171 98.4093 63.6193C97.4753 62.2215 96.1478 61.132 94.5946 60.4887C93.0414 59.8454 91.3324 59.677 89.6835 60.005C88.0347 60.333 86.5201 61.1425 85.3314 62.3313C84.1426 63.52 83.3331 65.0346 83.0051 66.6834C82.6771 68.3322 82.8455 70.0413 83.4888 71.5945C84.1322 73.1477 85.2216 74.4752 86.6194 75.4092C88.0173 76.3432 89.6607 76.8417 91.3418 76.8417L91.3418 70.4717C90.9205 70.4717 90.5087 70.3468 90.1584 70.1127C89.8081 69.8787 89.5351 69.546 89.3739 69.1568C89.2127 68.7676 89.1705 68.3393 89.2527 67.9261C89.3349 67.5129 89.5378 67.1334 89.8357 66.8355C90.1335 66.5376 90.5131 66.3348 90.9263 66.2526C91.3394 66.1704 91.7677 66.2126 92.1569 66.3738C92.5461 66.535 92.8788 66.808 93.1128 67.1583C93.3469 67.5086 93.4718 67.9204 93.4718 68.3417L99.8418 68.3417Z" fill="white"/>
<path d="M99.8418 68.3417C99.8418 66.6605 99.3433 65.0171 98.4093 63.6193C97.4753 62.2215 96.1478 61.132 94.5946 60.4887C93.0414 59.8454 91.3324 59.677 89.6835 60.005C88.0347 60.333 86.5201 61.1425 85.3314 62.3313C84.1426 63.52 83.3331 65.0346 83.0051 66.6834C82.6771 68.3322 82.8455 70.0413 83.4888 71.5945C84.1322 73.1477 85.2216 74.4752 86.6194 75.4092C88.0173 76.3432 89.6607 76.8417 91.3418 76.8417L91.3418 76.386C89.7508 76.386 88.1955 75.9142 86.8726 75.0303C85.5497 74.1464 84.5187 72.89 83.9098 71.4201C83.3009 69.9502 83.1416 68.3328 83.452 66.7723C83.7624 65.2119 84.5286 63.7785 85.6536 62.6535C86.7786 61.5285 88.212 60.7623 89.7724 60.4519C91.3329 60.1415 92.9503 60.3008 94.4202 60.9097C95.8901 61.5185 97.1465 62.5496 98.0304 63.8725C98.9143 65.1954 99.3861 66.7507 99.3861 68.3417L99.8418 68.3417Z" fill="#1A1A1A"/>
<path d="M96.8418 68.3417C96.8418 67.2539 96.5192 66.1905 95.9149 65.286C95.3105 64.3816 94.4515 63.6766 93.4466 63.2603C92.4416 62.8441 91.3357 62.7351 90.2688 62.9474C89.2019 63.1596 88.2219 63.6834 87.4527 64.4526C86.6835 65.2218 86.1597 66.2018 85.9475 67.2687C85.7353 68.3356 85.8442 69.4414 86.2605 70.4464C86.6767 71.4514 87.3817 72.3104 88.2862 72.9148C89.1906 73.5191 90.254 73.8417 91.3418 73.8417L91.3418 73.3177C90.3576 73.3177 89.3955 73.0259 88.5772 72.4791C87.7589 71.9324 87.1211 71.1552 86.7445 70.2459C86.3679 69.3367 86.2693 68.3362 86.4613 67.3709C86.6533 66.4056 87.1273 65.519 87.8232 64.8231C88.5191 64.1271 89.4057 63.6532 90.371 63.4612C91.3363 63.2692 92.3368 63.3678 93.2461 63.7444C94.1553 64.121 94.9325 64.7588 95.4792 65.5771C96.026 66.3954 96.3179 67.3575 96.3179 68.3417L96.8418 68.3417Z" fill="#1A1A1A"/>
</g>
<defs>
<clipPath id="clip0_1101_5767">
<rect width="31.3324" height="31.3324" fill="white" transform="translate(73 65.3928) rotate(-29.4245)"/>
</clipPath>
</defs>
</svg>
