<svg width="180" height="180" viewBox="0 0 180 180" fill="none" xmlns="http://www.w3.org/2000/svg">
<rect x="170.75" y="141.75" width="144.5" height="88.5" rx="2.75" transform="rotate(180 170.75 141.75)" fill="#1A1A1A" stroke="#1A1A1A" stroke-width="0.5"/>
<path d="M166 133C166 134.657 164.657 136 163 136H26V53H166V133Z" fill="white"/>
<rect x="9" y="35" width="145" height="89" rx="4" fill="#F3F3F3"/>
<rect x="18.25" y="44.25" width="144.5" height="88.5" rx="1.75" fill="white" stroke="#1A1A1A" stroke-width="0.5"/>
<line x1="18" y1="53.75" x2="163" y2="53.75" stroke="#1A1A1A" stroke-width="0.5"/>
<path d="M25 47C26.1046 47 27 47.8954 27 49C27 50.1046 26.1046 51 25 51C23.8954 51 23 50.1046 23 49C23 47.8954 23.8954 47 25 47ZM32 47C33.1046 47 34 47.8954 34 49C34 50.1046 33.1046 51 32 51C30.8954 51 30 50.1046 30 49C30 47.8954 30.8954 47 32 47ZM39 47C40.1046 47 41 47.8954 41 49C41 50.1046 40.1046 51 39 51C37.8954 51 37 50.1046 37 49C37 47.8954 37.8954 47 39 47Z" fill="#1A1A1A"/>
<line x1="44.25" y1="54" x2="44.25" y2="133" stroke="#1A1A1A" stroke-width="0.5"/>
<rect x="53" y="79" width="102" height="48" rx="1" fill="#E5E5E5"/>
<rect x="23" y="60" width="17" height="4" rx="1" fill="#FF3C4C"/>
<rect x="53" y="60" width="102" height="15" rx="1" fill="#E5E5E5"/>
<rect x="23" y="68" width="17" height="4" rx="1" fill="#D4D4D4"/>
<rect x="23" y="75" width="17" height="4" rx="1" fill="#D4D4D4"/>
<rect x="23" y="82" width="17" height="4" rx="1" fill="#D4D4D4"/>
<g clip-path="url(#clip0_715_5715)">
<path d="M54.6914 80.4273L54.6217 80.4666C54.4431 80.4755 54.2251 80.4147 54.1465 80.2754L46.6791 67.0361C46.6005 66.8967 46.5916 66.7181 46.731 66.6395C46.831 66.4912 46.9704 66.4126 47.1187 66.5126L61.1971 68.6752C61.3758 68.6663 61.4937 68.8753 61.5723 69.0147C61.5419 69.1236 61.4419 69.2719 61.3025 69.3505L55.2403 72.7698L54.8915 80.1307C54.8612 80.2397 54.8308 80.3486 54.6914 80.4273ZM54.1359 78.6281L54.4381 72.4875C54.4685 72.3785 54.5686 72.2302 54.6383 72.1909L59.934 69.204L54.6914 72.4875L54.1359 78.6281Z" fill="#1A1A1A"/>
<path d="M55.8418 66.3418C55.8418 64.6607 55.3433 63.0173 54.4093 61.6194C53.4753 60.2216 52.1478 59.1322 50.5946 58.4888C49.0414 57.8455 47.3324 57.6771 45.6835 58.0051C44.0347 58.3331 42.5201 59.1426 41.3314 60.3314C40.1426 61.5201 39.3331 63.0347 39.0051 64.6835C38.6771 66.3324 38.8455 68.0414 39.4888 69.5946C40.1322 71.1478 41.2216 72.4753 42.6194 73.4093C44.0173 74.3433 45.6607 74.8418 47.3418 74.8418L47.3418 68.4718C46.9205 68.4718 46.5087 68.3469 46.1584 68.1128C45.8081 67.8788 45.5351 67.5461 45.3739 67.1569C45.2127 66.7677 45.1705 66.3394 45.2527 65.9263C45.3349 65.5131 45.5378 65.1335 45.8357 64.8357C46.1335 64.5378 46.5131 64.3349 46.9263 64.2527C47.3394 64.1705 47.7677 64.2127 48.1569 64.3739C48.5461 64.5351 48.8788 64.8081 49.1128 65.1584C49.3469 65.5087 49.4718 65.9205 49.4718 66.3418L55.8418 66.3418Z" fill="white"/>
<path d="M55.8418 66.3418C55.8418 64.6607 55.3433 63.0173 54.4093 61.6194C53.4753 60.2216 52.1478 59.1322 50.5946 58.4888C49.0414 57.8455 47.3324 57.6771 45.6835 58.0051C44.0347 58.3331 42.5201 59.1426 41.3314 60.3314C40.1426 61.5201 39.3331 63.0347 39.0051 64.6835C38.6771 66.3324 38.8455 68.0414 39.4888 69.5946C40.1322 71.1478 41.2216 72.4753 42.6194 73.4093C44.0173 74.3433 45.6607 74.8418 47.3418 74.8418L47.3418 74.3861C45.7508 74.3861 44.1955 73.9143 42.8726 73.0304C41.5497 72.1465 40.5187 70.8901 39.9098 69.4202C39.3009 67.9503 39.1416 66.3329 39.452 64.7724C39.7624 63.212 40.5286 61.7786 41.6536 60.6536C42.7786 59.5286 44.212 58.7624 45.7724 58.452C47.3329 58.1416 48.9503 58.3009 50.4202 58.9098C51.8901 59.5187 53.1465 60.5497 54.0304 61.8726C54.9143 63.1955 55.3861 64.7508 55.3861 66.3418L55.8418 66.3418Z" fill="#1A1A1A"/>
<path d="M52.8418 66.3418C52.8418 65.254 52.5192 64.1906 51.9149 63.2862C51.3105 62.3817 50.4515 61.6767 49.4466 61.2605C48.4416 60.8442 47.3357 60.7353 46.2688 60.9475C45.2019 61.1597 44.2219 61.6835 43.4527 62.4527C42.6835 63.2219 42.1597 64.2019 41.9475 65.2688C41.7353 66.3357 41.8442 67.4416 42.2605 68.4466C42.6767 69.4515 43.3817 70.3105 44.2862 70.9149C45.1906 71.5192 46.254 71.8418 47.3418 71.8418L47.3418 71.3179C46.3576 71.3179 45.3955 71.026 44.5772 70.4792C43.7589 69.9325 43.1211 69.1553 42.7445 68.2461C42.3679 67.3368 42.2693 66.3363 42.4613 65.371C42.6533 64.4057 43.1273 63.5191 43.8232 62.8232C44.5191 62.1273 45.4057 61.6533 46.371 61.4613C47.3363 61.2693 48.3368 61.3679 49.2461 61.7445C50.1553 62.1211 50.9325 62.7589 51.4792 63.5772C52.026 64.3956 52.3179 65.3576 52.3179 66.3418L52.8418 66.3418Z" fill="#1A1A1A"/>
</g>
<defs>
<clipPath id="clip0_715_5715">
<rect width="31.3324" height="31.3324" fill="white" transform="translate(29 63.3929) rotate(-29.4245)"/>
</clipPath>
</defs>
</svg>
