<svg width="435" height="195" viewBox="0 0 435 195" fill="none" xmlns="http://www.w3.org/2000/svg">
<path d="M365.638 113.889H354.69V132.792H328.572V113.889H293.071L290.412 95.2981L322.473 35.7758H354.69V92.7985H366.733L365.638 113.889ZM329.354 92.7985V68.8958H328.416L315.592 92.7985H329.354Z" fill="#E1E1E1"/>
<path d="M243.965 84.9872V82.6438C243.965 72.437 243.652 66.5004 243.027 64.8339C242.505 63.0634 241.932 61.5532 241.306 60.3034C240.159 58.2204 238.126 57.1789 235.207 57.1789C232.287 57.1789 230.306 58.2204 229.264 60.3034C228.013 63.0113 227.335 65.7713 227.231 68.5834C227.022 73.7909 226.918 78.4777 226.918 82.6438V84.9872C226.918 96.3396 227.179 102.953 227.7 104.828C228.325 106.598 228.951 108.109 229.577 109.358C230.619 111.65 232.861 112.795 236.302 112.795C239.742 112.795 241.88 110.869 242.714 107.015C243.548 103.057 243.965 95.7147 243.965 84.9872ZM267.58 62.6468C268.519 68.3751 268.988 75.5615 268.988 84.206C268.988 92.8506 268.519 100.037 267.58 105.765C266.746 111.494 265.13 116.649 262.732 121.232C258.04 129.98 248.865 134.355 235.207 134.355C221.757 134.355 212.686 129.98 207.994 121.232C205.596 116.649 203.928 111.494 202.99 105.765C202.051 99.9328 201.582 92.7464 201.582 84.206C201.582 66.7087 203.876 54.0022 208.463 46.0868C213.155 38.1713 222.07 34.2136 235.207 34.2136C248.97 34.2136 258.145 38.5358 262.732 47.1804C265.13 51.763 266.746 56.9185 267.58 62.6468Z" fill="#FF112D"/>
<path d="M180.855 113.889H169.907V132.792H143.789V113.889H108.288L105.629 95.2981L137.69 35.7758H169.907V92.7985H181.949L180.855 113.889ZM144.571 92.7985V68.8958H143.633L130.808 92.7985H144.571Z" fill="#E1E1E1"/>
<path d="M354.689 35.7764H322.473L290.412 95.2984L293.071 113.89H328.573V132.792H354.689V113.89H365.638L366.732 92.7988H354.689V35.7764ZM329.354 68.8957V92.7988H315.591L328.416 68.8957H329.354ZM317.768 91.4969H328.051V72.331L317.768 91.4969ZM355.993 91.4969H368.105L366.875 115.192H355.993V134.094H327.27V115.192H291.941L289.061 95.0581L289.264 94.6817L321.694 34.4745H355.993V91.4969Z" fill="black"/>
<path d="M268.988 84.2056C268.988 75.5614 268.518 68.3751 267.58 62.6469C266.798 57.2766 265.328 52.4099 263.171 48.0465L262.731 47.1807C258.287 38.8064 249.538 34.4884 236.483 34.2266L235.205 34.2139C222.068 34.214 213.154 38.1719 208.462 46.0873C203.875 54.0027 201.581 66.7087 201.581 84.2056C201.581 92.746 202.05 99.9331 202.988 105.766C203.927 111.494 205.595 116.649 207.993 121.232C212.538 129.707 221.193 134.077 233.958 134.342L235.205 134.355C248.437 134.355 257.461 130.249 262.278 122.039L262.731 121.232C265.129 116.649 266.746 111.494 267.58 105.766C268.46 100.395 268.926 93.7433 268.981 85.8101L268.988 84.2056ZM242.661 84.9875V82.6444C242.661 77.5502 242.583 73.5395 242.428 70.6045C242.351 69.1362 242.255 67.9519 242.143 67.0434C242.027 66.1066 241.904 65.5542 241.806 65.2914L241.789 65.2469L241.775 65.2011C241.272 63.4929 240.728 62.0657 240.15 60.9064C239.285 59.3554 237.763 58.4807 235.205 58.4807C232.638 58.4808 231.199 59.3574 230.435 60.8721C229.259 63.4255 228.629 66.0095 228.532 68.6313V68.6351C228.324 73.8294 228.22 78.4994 228.22 82.6444V84.9875C228.22 90.6567 228.286 95.1288 228.415 98.4107C228.545 101.713 228.738 103.665 228.947 104.448C229.477 105.944 230.001 107.233 230.518 108.319L230.742 108.776L230.762 108.819C231.515 110.474 233.151 111.493 236.301 111.493V112.795L235.67 112.782C232.79 112.657 230.828 111.654 229.785 109.774L229.576 109.358C228.95 108.109 228.324 106.598 227.699 104.827C227.242 103.186 226.986 97.9176 226.929 89.0216L226.917 84.9875V82.6444C226.917 79.52 226.975 76.1022 227.093 72.392L227.23 68.583C227.334 65.7712 228.012 63.0115 229.263 60.3038C230.305 58.2209 232.286 57.1789 235.205 57.1788C238.125 57.1788 240.159 58.2208 241.305 60.3038C241.931 61.5534 242.504 63.0635 243.025 64.8337C243.65 66.5001 243.964 72.4376 243.964 82.6444V84.9875L243.959 86.9594C243.91 96.6196 243.495 103.305 242.713 107.015C241.879 110.869 239.741 112.795 236.301 112.795V111.493C237.765 111.493 238.827 111.091 239.611 110.384C240.414 109.661 241.059 108.496 241.439 106.739C242.24 102.93 242.661 95.7184 242.661 84.9875ZM270.291 84.2056C270.291 92.8781 269.819 100.133 268.868 105.951L268.869 105.952C268.016 111.809 266.36 117.107 263.886 121.834L263.88 121.846C258.878 131.172 249.139 135.657 235.205 135.657C221.47 135.657 211.843 131.165 206.845 121.846L206.838 121.834C204.369 117.115 202.661 111.824 201.703 105.975L201.702 105.972C200.749 100.048 200.277 92.7874 200.277 84.2056C200.277 66.654 202.569 53.6588 207.335 45.4351L207.341 45.4236C212.36 36.9561 221.825 32.9122 235.205 32.912C249.229 32.912 258.981 37.3348 263.883 46.5704L263.886 46.5768C266.36 51.3038 268.016 56.6027 268.869 62.4588C269.821 68.2775 270.291 75.5325 270.291 84.2056Z" fill="black"/>
<path d="M169.908 35.7764H137.691L105.631 95.2984L108.29 113.89H143.792V132.792H169.908V113.89H180.856L181.951 92.7988H169.908V35.7764ZM144.573 68.8957V92.7988H130.81L143.635 68.8957H144.573ZM132.987 91.4969H143.27V72.331L132.987 91.4969ZM171.211 91.4969H183.324L182.093 115.192H171.211V134.094H142.488V115.192H107.16L104.279 95.0581L104.483 94.6817L136.912 34.4745H171.211V91.4969Z" fill="black"/>
<path d="M363.032 111.285H352.085V130.189H325.967V111.285H290.465L287.807 92.6943L319.868 33.1721H352.085V90.1947H364.127L363.032 111.285ZM326.749 90.1947V66.2921H325.81L312.986 90.1947H326.749Z" fill="#1A1A1A"/>
<path d="M241.357 82.3834V80.04C241.357 69.8332 241.045 63.8966 240.419 62.2302C239.898 60.4596 239.324 58.9494 238.699 57.6996C237.552 55.6166 235.519 54.5751 232.599 54.5751C229.68 54.5751 227.699 55.6166 226.656 57.6996C225.405 60.4075 224.728 63.1675 224.623 65.9796C224.415 71.1872 224.311 75.874 224.311 80.04V82.3834C224.311 93.7359 224.571 100.349 225.092 102.224C225.718 103.995 226.344 105.505 226.969 106.755C228.012 109.046 230.253 110.192 233.694 110.192C237.135 110.192 239.272 108.265 240.106 104.411C240.94 100.454 241.357 93.111 241.357 82.3834ZM264.973 60.043C265.911 65.7713 266.381 72.9577 266.381 81.6023C266.381 90.2468 265.911 97.4332 264.973 103.162C264.139 108.89 262.523 114.045 260.125 118.628C255.433 127.377 246.258 131.751 232.599 131.751C219.149 131.751 210.079 127.377 205.387 118.628C202.989 114.045 201.321 108.89 200.382 103.162C199.444 97.3291 198.975 90.1426 198.975 81.6023C198.975 64.1049 201.268 51.3985 205.856 43.483C210.548 35.5675 219.462 31.6098 232.599 31.6098C246.362 31.6098 255.537 35.9321 260.125 44.5766C262.523 49.1592 264.139 54.3147 264.973 60.043Z" fill="#1A1A1A"/>
<path d="M178.249 111.285H167.302V130.189H141.184V111.285H105.682L103.023 92.6943L135.084 33.1721H167.302V90.1947H179.344L178.249 111.285ZM141.966 90.1947V66.2921H141.027L128.203 90.1947H141.966Z" fill="#1A1A1A"/>
<path d="M311.188 53.3907C310.325 53.3818 309.456 53.3774 308.581 53.3774C187.376 53.3774 187.376 149.066 148.277 168.594C134.042 175.704 110.482 169.679 102.662 162.736" stroke="black"/>
<path d="M355.5 58.477C414.61 72.6821 432.635 113.117 433.697 135.396" stroke="black"/>
<path d="M202.363 98.2925C212.138 83.3208 238.855 63.7925 266.876 57.934" stroke="white"/>
<line x1="23.1621" y1="153.123" x2="239.508" y2="153.123" stroke="black"/>
<line x1="274.697" y1="153.123" x2="435.002" y2="153.123" stroke="black"/>
<line x1="249.934" y1="153.123" x2="264.27" y2="153.123" stroke="black"/>
<line x1="170.434" y1="164.84" x2="216.049" y2="164.84" stroke="black" stroke-dasharray="2 2"/>
<line x1="261.664" y1="164.84" x2="377.657" y2="164.84" stroke="black" stroke-dasharray="2 2"/>
<path d="M58.8867 147.869L93.5391 118.384C94.1701 117.847 95.1173 117.923 95.6548 118.554L108.999 134.202C112.403 138.194 111.924 144.187 107.928 147.587L85.461 166.703C81.4651 170.104 75.4659 169.623 72.0616 165.631L58.7176 149.983C58.18 149.352 58.2558 148.406 58.8867 147.869Z" fill="white" stroke="#1A1A1A"/>
<path d="M32.9824 113.476L41.8406 105.939C42.4715 105.403 43.4188 105.478 43.9563 106.109L62.0969 127.382C64.7183 130.456 64.349 135.071 61.2721 137.689C58.1951 140.307 53.5754 139.938 50.954 136.863L32.8133 115.59C32.2758 114.96 32.3515 114.013 32.9824 113.476Z" fill="white" stroke="#1A1A1A"/>
<path d="M54.8086 94.904L63.6667 87.3668C64.2977 86.8302 65.245 86.9058 65.7824 87.5361L83.9231 108.81C86.5445 111.884 86.1751 116.499 83.0983 119.117C80.0213 121.735 75.4016 121.365 72.7801 118.291L54.6395 97.0174C54.1019 96.3871 54.1776 95.4409 54.8086 94.904Z" fill="white" stroke="#1A1A1A"/>
<rect x="0.70523" y="0.0564369" width="65.4353" height="15.9345" rx="1.5" transform="matrix(0.761607 -0.648039 0.648854 0.760913 42.6178 146.246)" fill="#FF112D" stroke="#1A1A1A"/>
<path d="M99.122 145.473C99.5426 145.115 100.174 145.165 100.532 145.585L100.925 146.046C101.283 146.466 101.233 147.097 100.813 147.455L86.4617 159.666C86.0412 160.023 85.4096 159.973 85.0513 159.553L84.6584 159.092C84.3001 158.672 84.3508 158.041 84.7712 157.683L99.122 145.473ZM94.8962 140.517C95.3168 140.159 95.9483 140.21 96.3066 140.63L96.6995 141.091C97.0579 141.511 97.0074 142.142 96.5868 142.499L82.2359 154.71C81.8153 155.068 81.1837 155.018 80.8255 154.597L80.4326 154.137C80.0746 153.717 80.1251 153.086 80.5454 152.728L94.8962 140.517ZM90.671 135.562C91.0916 135.204 91.7231 135.255 92.0815 135.675L92.4737 136.135C92.8321 136.555 92.7816 137.186 92.361 137.544L78.0101 149.755C77.5895 150.112 76.9579 150.062 76.5997 149.642L76.2074 149.182C75.8492 148.762 75.8999 148.131 76.3202 147.773L90.671 135.562Z" fill="#D9D9D9"/>
<rect width="1.30249" height="15.6299" transform="matrix(0.761605 -0.648041 0.648852 0.760915 36.6465 114.834)" fill="#D9D9D9"/>
<rect width="1.30249" height="15.6299" transform="matrix(0.761605 -0.648041 0.648852 0.760915 58.4727 96.2614)" fill="#D9D9D9"/>
<path d="M13.5554 131.33L13.2779 131.746L13.7651 132.071L14.0099 131.539L13.5554 131.33ZM17.0976 123.645L17.4108 123.255L16.9111 122.854L16.6432 123.436L17.0976 123.645ZM3.12602 124.384L2.84851 124.8L13.2779 131.746L13.5554 131.33L13.8329 130.915L3.40352 123.968L3.12602 124.384ZM13.5554 131.33L14.0099 131.539L17.552 123.854L17.0976 123.645L16.6432 123.436L13.101 131.121L13.5554 131.33ZM17.0976 123.645L16.7844 124.034L25.1656 130.755L25.4787 130.366L25.7919 129.976L17.4108 123.255L17.0976 123.645Z" fill="black"/>
<path d="M94.1794 71.6615L94.6781 71.6215L94.7254 72.2093L94.1372 72.1595L94.1794 71.6615ZM85.2941 70.9083L84.8013 70.9942L84.6897 70.3556L85.3363 70.4104L85.2941 70.9083ZM93.1741 59.1644L93.6728 59.1244L94.6781 71.6215L94.1794 71.6615L93.6808 71.7015L92.6755 59.2043L93.1741 59.1644ZM94.1794 71.6615L94.1372 72.1595L85.2519 71.4063L85.2941 70.9083L85.3363 70.4104L94.2217 71.1636L94.1794 71.6615ZM85.2941 70.9083L85.7869 70.8225L87.6407 81.4317L87.1479 81.5176L86.6551 81.6035L84.8013 70.9942L85.2941 70.9083Z" fill="black"/>
<rect width="15.632" height="2.60533" transform="matrix(0.761606 -0.64804 0.648853 0.760914 93.7441 163.727)" fill="#1A1A1A"/>
<path d="M148.276 36.4528L105.268 96.3396L138.501 36.4528H148.276Z" fill="#1A1A1A"/>
<path d="M333.344 36.4528L290.336 96.3396L323.57 36.4528H333.344Z" fill="#1A1A1A"/>
</svg>
